<?xml version="1.0" encoding="UTF-8" standalone="no"?>
<svg
   width="108.82598"
   height="108.82598"
   version="1.1"
   id="svg4"
   sodipodi:docname="github-mark.svg"
   inkscape:version="1.2.2 (b0a8486541, 2022-12-01)"
   xmlns:inkscape="http://www.inkscape.org/namespaces/inkscape"
   xmlns:sodipodi="http://sodipodi.sourceforge.net/DTD/sodipodi-0.dtd"
   xmlns="http://www.w3.org/2000/svg"
   xmlns:svg="http://www.w3.org/2000/svg">
  <defs
     id="defs8" />
  <sodipodi:namedview
     id="namedview6"
     pagecolor="#000000"
     bordercolor="#000000"
     borderopacity="0.25"
     inkscape:showpageshadow="2"
     inkscape:pageopacity="0"
     inkscape:pagecheckerboard="0"
     inkscape:deskcolor="#d1d1d1"
     showgrid="false"
     inkscape:zoom="4.5104167"
     inkscape:cx="50.21709"
     inkscape:cy="50.993072"
     inkscape:window-width="1890"
     inkscape:window-height="991"
     inkscape:window-x="1095"
     inkscape:window-y="882"
     inkscape:window-maximized="0"
     inkscape:current-layer="svg4" />
  <path
     id="path416"
     style="fill:#ffffff;fill-opacity:1;stroke:none;stroke-width:3.46205;stroke-opacity:1;stop-color:#000000"
     d="M 54.412109 0 A 54.412991 54.412991 0 0 0 0 54.412109 A 54.412991 54.412991 0 0 0 54.412109 108.82617 A 54.412991 54.412991 0 0 0 108.82617 54.412109 A 54.412991 54.412991 0 0 0 54.412109 0 z M 54.453125 6.4121094 C 81.387098 6.4121094 103.30656 28.411933 103.22656 55.628906 C 103.22656 77.384884 89.234246 95.800317 69.822266 102.32031 C 67.396268 102.80931 66.505859 101.26103 66.505859 99.957031 C 66.505859 98.328033 66.585938 93.031634 66.585938 86.431641 C 66.585937 81.786645 65.049529 78.852686 63.269531 77.304688 C 74.18952 76.081689 85.59375 71.926465 85.59375 53.021484 C 85.59375 47.64349 83.733122 43.244262 80.578125 39.822266 C 81.063125 38.600267 82.763747 33.546196 80.09375 26.783203 C 80.09375 26.783203 75.968006 25.479944 66.666016 31.835938 C 62.78302 30.776939 58.578121 30.205078 54.453125 30.205078 A 46.97 46.97 0 0 0 42.240234 31.835938 C 32.939244 25.479944 28.8125 26.783203 28.8125 26.783203 C 26.142503 33.546196 27.843125 38.600267 28.328125 39.822266 C 25.254128 43.244262 23.3125 47.64349 23.3125 53.021484 C 23.3125 71.926465 34.717651 76.163689 45.556641 77.304688 C 44.181642 78.526686 42.886421 80.7263 42.482422 83.904297 C 39.651425 85.208296 32.615043 87.326071 28.248047 79.830078 C 28.248047 79.830078 25.658604 75.105297 20.724609 74.779297 C 20.724609 74.779297 15.952395 74.777972 20.400391 77.792969 C 20.400391 77.792969 23.636315 79.258896 25.820312 84.962891 C 25.820312 84.962891 28.650248 93.764075 42.240234 90.830078 C 42.240234 94.905074 42.320312 98.816032 42.320312 99.957031 C 42.320312 101.26003 41.430904 102.81031 39.003906 102.32031 C 19.591926 95.802317 5.5996094 77.384884 5.5996094 55.628906 C 5.5996094 28.411933 27.438152 6.4121094 54.453125 6.4121094 z " />
</svg>
